<svg width="108" height="129" fill="none" xmlns="http://www.w3.org/2000/svg"><path d="M140.369 28.264H96.055a7.432 7.432 0 00-5.223 2.136 7.25 7.25 0 00-2.163 5.159v21.885H73.9V6.378a7.25 7.25 0 00-2.164-5.158 7.432 7.432 0 00-5.222-2.137H7.428A7.432 7.432 0 002.205 1.22 7.25 7.25 0 00.042 6.378v124.018h140.327a7.433 7.433 0 005.222-2.137 7.25 7.25 0 002.163-5.158V35.559a7.25 7.25 0 00-2.163-5.159 7.433 7.433 0 00-5.222-2.136zm-96.013-7.295h14.77v14.59h-14.77v-14.59zM29.584 93.92h-14.77V79.33h14.77v14.59zm0-29.18h-14.77V50.15h14.77v14.59zm0-29.181h-14.77v-14.59h14.77v14.59zM59.127 93.92H44.356V79.33h14.77v14.59zm0-29.18H44.356V50.15h14.77v14.59zm66.47 29.18h-14.771V79.33h14.771v14.59zm0-29.18h-14.771V50.15h14.771v14.59z" fill="#fff"/></svg>