<svg width="107" height="129" fill="none" xmlns="http://www.w3.org/2000/svg"><g clip-path="url(#clip0_3:1116)" fill="#fff"><path d="M29.873 35.303a18.623 18.623 0 01-10.29-3.097 18.409 18.409 0 01-6.821-8.248 18.247 18.247 0 01-1.054-10.618 18.335 18.335 0 015.069-9.41c2.59-2.57 5.89-4.32 9.482-5.03A18.654 18.654 0 0136.96-.054a18.49 18.49 0 018.312 6.769 18.277 18.277 0 013.121 10.21c0 4.874-1.951 9.549-5.424 12.996a18.594 18.594 0 01-13.096 5.382zm0-27.567a9.311 9.311 0 00-5.145 1.549 9.204 9.204 0 00-3.41 4.124 9.123 9.123 0 00-.528 5.309 9.167 9.167 0 002.535 4.705 9.283 9.283 0 004.741 2.515 9.327 9.327 0 005.35-.523 9.245 9.245 0 004.156-3.384 9.14 9.14 0 001.56-5.106 9.153 9.153 0 00-2.711-6.497 9.297 9.297 0 00-6.548-2.692zM103.954 35.304a18.623 18.623 0 01-10.29-3.097 18.41 18.41 0 01-6.82-8.248 18.247 18.247 0 01-1.055-10.618 18.335 18.335 0 015.069-9.41c2.59-2.57 5.89-4.32 9.483-5.03a18.652 18.652 0 0110.7 1.046 18.486 18.486 0 018.312 6.769 18.278 18.278 0 013.121 10.21c0 4.874-1.951 9.549-5.424 12.995a18.593 18.593 0 01-13.096 5.383zm0-27.567a9.31 9.31 0 00-5.145 1.549 9.204 9.204 0 00-3.41 4.124 9.122 9.122 0 00-.527 5.309 9.167 9.167 0 002.534 4.705 9.283 9.283 0 004.741 2.515 9.328 9.328 0 005.351-.523 9.249 9.249 0 004.156-3.385 9.142 9.142 0 001.56-5.105 9.152 9.152 0 00-2.712-6.498 9.297 9.297 0 00-6.548-2.691zM113.214 131.789h-18.52a9.294 9.294 0 01-6.549-2.692 9.151 9.151 0 01-2.712-6.497V90.438h9.26V122.6h18.521V81.25h9.26V53.681a4.578 4.578 0 00-1.356-3.249 4.648 4.648 0 00-3.274-1.345H88.119L66.913 85.844 45.707 49.088H15.98a4.649 4.649 0 00-3.274 1.345 4.577 4.577 0 00-1.356 3.25v27.566h9.26V122.6h18.52V90.438h9.261V122.6a9.152 9.152 0 01-2.712 6.497 9.295 9.295 0 01-6.548 2.692h-18.52a9.294 9.294 0 01-6.549-2.692 9.151 9.151 0 01-2.712-6.497V90.438a9.297 9.297 0 01-6.548-2.691 9.153 9.153 0 01-2.712-6.498V53.682a13.73 13.73 0 014.068-9.746 13.945 13.945 0 019.822-4.037h35.097l15.835 27.567 15.835-27.567h35.096c3.684 0 7.217 1.452 9.822 4.037a13.73 13.73 0 014.069 9.746V81.25a9.152 9.152 0 01-2.713 6.498 9.296 9.296 0 01-6.548 2.691V122.6a9.15 9.15 0 01-2.712 6.497 9.295 9.295 0 01-6.548 2.692z"/><ellipse cx="28.677" cy="17.667" rx="11.949" ry="11.857"/><ellipse cx="102.759" cy="17.667" rx="11.949" ry="11.857"/><path d="M8.257 46.123h40.136v78.255H14.935V90.255l-4.952-8.12-1.727-36.012zM85.433 46.123l37.569.734v34.556l-4.112 42.965H85.433V46.123z"/></g><defs><clipPath id="clip0_3:1116"><path fill="#fff" d="M0 0h107v129H0z"/></clipPath></defs></svg>