<svg width="109" height="129" fill="none" xmlns="http://www.w3.org/2000/svg"><path d="M76.16-1.723C34.07-1.723 0 31.711 0 73.031v14.017c0 1.735.492 3.436 1.422 4.912a9.457 9.457 0 003.84 3.446l4.28 2.1c.598 17.546 15.276 31.591 33.298 31.591h7.14c3.943 0 7.14-3.137 7.14-7.008V70.695c0-3.87-3.197-7.008-7.14-7.008h-7.14c-9.324 0-17.752 3.761-23.8 9.82v-.476c0-30.914 25.624-56.065 57.12-56.065s57.12 25.15 57.12 56.065v.476c-6.048-6.059-14.476-9.82-23.8-9.82h-7.14c-3.943 0-7.14 3.138-7.14 7.008v51.394c0 3.871 3.197 7.008 7.14 7.008h7.14c18.022 0 32.7-14.045 33.299-31.591l4.278-2.1a9.45 9.45 0 003.841-3.445 9.212 9.212 0 001.422-4.913V73.03c0-41.313-34.063-74.754-76.16-74.754z" fill="#fff"/></svg>