<svg width="231" height="111" fill="none" xmlns="http://www.w3.org/2000/svg"><path d="M70.78 10.445L66.8 11.57l2.589-3.336-2.244-3.555 3.847 1.509 2.587-3.317-.207 4.259 3.864 1.513-3.986 1.12-.208 4.26-2.261-3.577zm19.665 14.67l-4.007-1.078 3.853-1.545-.213-4.256 2.612 3.296 3.839-1.529-2.225 3.569 2.59 3.298-3.974-1.084-2.245 3.61-.23-4.281zm-74.802 65.18l-3.823 1.56 2.214-3.6-2.63-3.275 3.99 1.058 2.213-3.623.265 4.283 4.006 1.055-3.855 1.566.265 4.258-2.645-3.282zM4.089 65.885L0 65.253 3.665 63.3l-.692-4.209 2.954 2.976 3.664-1.995-1.842 3.83 2.953 2.995-4.08-.623-1.849 3.809-.684-4.198zm3.79-25.46l-3.427 2.352 1.427-3.998-3.23-2.645 4.101.177 1.433-4 1.125 4.108 4.141.16-3.443 2.374 1.126 4.134-3.253-2.662zm13.59-21.757l-4.107.278 3.172-2.732-1.53-3.948 3.493 2.258 3.17-2.711-1.007 4.12 3.487 2.282-4.122.278-1.012 4.14-1.544-3.965zM44.73 0l1.91 3.762 4.074-.707-2.877 3.033 1.93 3.799-3.715-1.909-2.896 3.072.603-4.235-3.691-1.888 4.052-.706.61-4.221zm-4.696 49.38c0-3.291 0-3.882-.04-4.557-.042-.718-.205-1.056-.88-1.203-.143-.042-.408-.042-.592-.063-.142-.022-.265-.043-.265-.127 0-.126.101-.169.327-.169.47 0 1.02 0 2.308.064.144 0 4.209 0 4.678-.021.45-.021.818-.064.94-.128.123-.063.163-.083.224-.083.062 0 .083.083.083.19 0 .147-.122.4-.163.99-.02.317-.041.72-.082 1.266-.02.212-.082.36-.164.36-.122 0-.163-.105-.163-.275 0-.274-.041-.527-.103-.695-.142-.486-.572-.697-1.47-.782-.348-.042-2.574-.063-2.8-.063-.08 0-.122.063-.122.212v5.823c0 .147.02.21.122.21.267 0 2.779 0 3.25-.042.55-.042.816-.106 1.02-.359.103-.125.164-.21.246-.21.06 0 .102.042.102.168 0 .127-.102.486-.163 1.183-.062.652-.062 1.139-.082 1.434-.02.21-.062.316-.144.316-.122 0-.142-.17-.142-.338 0-.19-.02-.4-.082-.59-.082-.316-.327-.612-1.062-.697-.551-.063-2.575-.106-2.921-.106-.103 0-.144.064-.144.149v1.856c0 .718-.02 3.166 0 3.608.041.865.163 1.33.675 1.54.347.15.899.191 1.695.191.613 0 1.287-.023 1.839-.19.654-.211.878-.655 1.04-1.562.042-.232.083-.317.186-.317.121 0 .121.17.121.317 0 .17-.162 1.604-.265 2.046-.142.55-.306.55-1.103.55-1.512 0-2.186-.043-2.983-.064-.816-.023-1.756-.064-2.554-.064-.49 0-.98.085-1.51.064-.226 0-.328-.042-.328-.17 0-.062.102-.104.225-.125.204-.022.327-.022.469-.064.43-.104.695-.401.736-1.982.02-.824.041-1.9.041-3.778V49.38zm13.005 0c0-3.293 0-3.883-.043-4.557-.04-.718-.204-1.056-.877-1.203a3.538 3.538 0 00-.593-.063c-.184 0-.266-.043-.266-.127 0-.126.103-.169.327-.169.92 0 2.207.064 2.31.064.49 0 1.286-.064 2.226-.064 3.35 0 4.086 2.11 4.086 3.166 0 1.73-.96 2.762-1.92 3.797 1.512.484 3.534 1.982 3.534 4.45 0 2.259-1.716 4.6-5.209 4.6-.226 0-.878-.04-1.472-.062-.415-.03-.83-.052-1.245-.064-.654 0-1.288.064-2.004.064-.224 0-.327-.042-.327-.148 0-.064.042-.149.307-.149.164 0 .307-.021.491-.063.41-.085.49-.57.572-1.182.103-.886.103-2.553.103-4.578V49.38zm1.633.465c0 .148.042.19.144.233.122.02.49.083 1.245.083 1.145 0 1.43-.04 1.86-.548.43-.506.736-1.266.736-2.13 0-1.752-.757-3.63-2.759-3.63-.224 0-.654.022-.98.105-.184.044-.246.106-.246.233v5.654zm0 2.237c0 1.625 0 4.24.021 4.557.062 1.034.062 1.33.695 1.646.552.276 1.43.317 1.797.317 1.104 0 2.881-.612 2.881-2.996 0-1.266-.409-3.102-1.981-4.22-.695-.486-1.207-.55-1.697-.613-.265-.042-1.287-.042-1.594-.042-.08 0-.122.042-.122.148v1.203zm12.47-2.702c0-3.291 0-3.882-.041-4.557-.041-.718-.204-1.056-.879-1.203a3.72 3.72 0 00-.695-.063c-.082 0-.162-.043-.162-.127 0-.126.1-.169.327-.169.919 0 2.145.064 2.308.064.45 0 1.633-.064 2.573-.064 2.555 0 3.473.886 3.802 1.203.448.442 1.02 1.392 1.02 2.764 0 2.742-2.125 4.77-5.025 4.77-.103 0-.327 0-.43-.024-.101 0-.224-.04-.224-.147 0-.17.123-.19.55-.19 1.982 0 3.537-1.392 3.537-3.608 0-.527-.062-1.94-1.146-3.08-1.082-1.14-2.329-1.054-2.798-1.054-.347 0-.695.042-.88.125-.121.043-.162.191-.162.401v8.672c0 2.027 0 3.693.102 4.579.06.612.183 1.075.797 1.16.285.04.736.085.919.085.123 0 .164.063.164.125 0 .106-.102.17-.327.17-1.125 0-2.412-.064-2.513-.064-.062 0-1.348.064-1.96.064-.227 0-.328-.042-.328-.17 0-.062.04-.125.163-.125.183 0 .43-.043.613-.085.409-.085.511-.548.592-1.16.103-.886.103-2.552.103-4.578V49.38zm11.77 1.837c0-3.418 2.41-8.25 8.048-8.25 4.597 0 8.029 2.996 8.029 7.912 0 4.726-3.228 8.63-8.151 8.63-5.597 0-7.926-4.495-7.926-8.292zm14.116.253c0-5.065-2.983-7.786-6.21-7.786-3.413 0-5.966 2.322-5.966 6.94 0 4.917 2.86 8.082 6.537 8.082 1.84 0 5.64-1.096 5.64-7.236zm19.459 1.625c0 2.025 0 3.608.082 4.494.061.802.245 1.138.837 1.245.286.063.552.063.796.084.226.023.267.085.267.149 0 .084-.082.148-.267.148-.959 0-2.45-.064-2.614-.064-.184 0-1.348.064-1.982.064-.285 0-.327-.064-.327-.148 0-.064.021-.126.307-.149.142-.02.224-.02.408-.063.327-.064.633-.275.695-1.201.061-.886.082-2.68.082-4.706v-8.587c0-.085-.062-.147-.123-.147-.307-.021-1.327-.021-4.433-.021-3.004 0-3.514 0-3.8.021-.245.02-.348.062-.348.4v8.545c0 2.025.021 3.501.082 4.387.042.718.184 1.181.797 1.288.286.042.654.063.837.084.245.023.307.085.307.168 0 .064-.081.128-.368.128-.858 0-2.472-.064-2.574-.064-.163 0-1.286.064-1.9.064-.225 0-.367-.022-.367-.128 0-.062.02-.125.245-.168.183-.02.224-.02.448-.063.471-.085.655-.506.695-1.413.062-.886.083-2.322.083-4.347v-3.756c0-3.291 0-3.84-.041-4.515-.042-.802-.287-1.076-.858-1.202-.226-.043-.449-.043-.634-.064-.183-.02-.245-.084-.245-.17 0-.083.123-.125.348-.125.755 0 1.919.064 2.226.064h10.399c.102 0 1.655-.064 2.104-.064.286 0 .307.064.307.126 0 .084-.062.127-.266.17-.123.02-.224.02-.388.063-.511.126-.735.253-.776 1.181-.041.676-.041 1.287-.041 4.578v3.714zm7.867-3.715c0-3.291 0-3.882-.039-4.557-.041-.718-.206-1.056-.88-1.203-.144-.042-.408-.042-.591-.063-.144-.022-.267-.043-.267-.127 0-.126.101-.169.328-.169.468 0 1.02 0 2.307.064.145 0 4.209 0 4.678-.021.45-.021.819-.064.94-.128.123-.063.163-.083.225-.083.061 0 .082.083.082.19 0 .147-.122.4-.162.99-.022.317-.041.72-.083 1.266-.021.212-.082.36-.163.36-.122 0-.163-.105-.163-.275 0-.274-.041-.527-.102-.695-.143-.486-.572-.697-1.471-.782-.346-.042-2.574-.063-2.8-.063-.08 0-.121.063-.121.212v5.823c0 .147.021.21.121.21.269 0 2.781 0 3.251-.042.552-.042.817-.106 1.02-.359.102-.125.164-.21.246-.21.06 0 .101.042.101.168 0 .127-.101.486-.163 1.183-.061.652-.061 1.139-.082 1.434-.02.21-.061.316-.144.316-.121 0-.143-.17-.143-.338 0-.19-.021-.4-.082-.59-.083-.316-.327-.612-1.062-.697-.551-.063-2.577-.106-2.921-.106-.103 0-.145.064-.145.149v1.856c0 .718-.021 3.166 0 3.608.041.865.162 1.33.676 1.54.346.15.897.191 1.693.191.613 0 1.288-.023 1.839-.19.654-.211.88-.655 1.042-1.562.041-.232.083-.317.184-.317.122 0 .122.17.122.317 0 .17-.161 1.604-.265 2.046-.143.55-.307.55-1.103.55-1.512 0-2.187-.043-2.983-.064-.817-.023-1.757-.064-2.555-.064-.489 0-.979.085-1.509.064-.225 0-.328-.042-.328-.17 0-.062.101-.104.224-.125.204-.022.327-.022.47-.064.429-.104.695-.401.736-1.982.02-.824.039-1.9.039-3.778V49.38h.003zm14.333 7.342c2.533-3.185 7.804-9.937 9.807-12.468.757-.95 1.082-1.288 1.327-1.288.205 0 .307.17.307 2.005 0 3.946 0 7.702.061 11.647.021 1.54.183 2.11.837 2.214.102.023.468.063.798.085.245.02.307.084.307.148 0 .126-.084.149-.307.149-.736 0-2.535-.064-2.861-.064-.449 0-1.103.064-1.839.064-.245 0-.305-.041-.305-.128 0-.104.04-.148.305-.168.183-.02.409-.042.593-.084.591-.126.674-1.012.695-2.595.061-3.46.041-6.983.082-10.592-1.063 1.372-9.602 12.3-10.461 13.271-.429.485-.654.59-.756.59-.206 0-.267-.166-.267-1.01 0-3.483.061-8.23 0-12.282-.021-2.32-.245-2.468-.897-2.594-.268-.043-.49-.043-.655-.064-.162-.02-.224-.063-.224-.147 0-.148.185-.148.409-.148.634 0 1.92.064 2.247.064.652 0 1.472-.064 2.043-.064.246 0 .347.042.347.127 0 .084-.041.147-.265.168-.245.021-.346.021-.531.064-.572.126-.716.359-.758 2.152l-.039 10.948zm1.655-17.11c.204-.296.572-.612.674-.612.06 0 .102.02.122.127.144.716 1.125 1.645 3.086 1.645 1.492 0 2.453-.485 3.311-1.562.161-.19.183-.19.265-.19.082 0 .103.15-.02.317-.989 1.474-2.617 2.35-4.353 2.342-.818 0-1.777-.169-2.553-.759-.409-.338-.635-.697-.635-1.013a.547.547 0 01.103-.295zm17.222 17.618c-1.981-1.836-2.472-4.241-2.472-6.246 0-1.413.47-3.882 2.289-5.76 1.224-1.266 3.085-2.256 6.231-2.256.818 0 1.96.062 2.963.252.776.148 1.41.211 2.167.315.143.022.183.107.183.234 0 .168-.062.42-.101 1.181-.042.697-.042 1.857-.062 2.173-.02.317-.06.443-.183.443-.144 0-.164-.147-.164-.443 0-.823-.326-1.688-.859-2.152-.714-.633-2.289-1.202-4.085-1.202-2.717 0-3.983.822-4.699 1.538-1.491 1.478-1.839 3.357-1.839 5.509 0 4.03 3.004 7.722 7.377 7.722 1.531 0 2.736-.19 3.553-1.055.43-.465.695-1.392.757-1.773.041-.231.083-.316.205-.316.101 0 .144.147.144.316 0 .147-.247 1.983-.451 2.7-.121.4-.162.445-.53.611-.817.34-2.37.485-3.677.485-3.068.001-5.132-.779-6.747-2.276zm18.828-6.5c.635-.632 3.413-3.649 4.659-4.979 1.226-1.307 1.308-1.519 1.308-1.772a.433.433 0 00-.265-.401c-.144-.064-.184-.105-.184-.19 0-.084.122-.127.305-.127.593 0 .531.064 1.226.064.634 0 1.839-.064 2.166-.064.286 0 .348.064.348.149 0 .085-.041.127-.225.147a3.607 3.607 0 00-1.042.254c-.511.21-.899.464-2.125 1.687-1.798 1.793-4.125 4.177-4.657 4.79 1.287 1.456 5.004 5.359 5.965 6.287 1.675 1.625 2.39 2.089 3.37 2.28a2.8 2.8 0 00.594.062c.161 0 .284.04.284.148 0 .108-.082.149-.306.149h-1.511c-1.778 0-2.248-.232-3.208-1.012-1.226-.992-4.903-5.065-6.701-7.28v2.175c0 2.024 0 3.692.103 4.576.06.612.184 1.077.796 1.162.286.04.696.085.817.085.184 0 .245.085.245.148 0 .106-.081.149-.306.149-1.124 0-2.411-.064-2.512-.064-.102 0-1.308.064-1.922.064-.224 0-.327-.023-.327-.149 0-.063.04-.148.225-.148.122 0 .346-.021.531-.062.409-.087.531-.571.613-1.183.102-.885.102-2.552.102-4.577v-3.715c0-3.291 0-3.882-.042-4.557-.04-.718-.245-1.075-.694-1.181a3.371 3.371 0 00-.736-.085c-.163 0-.224-.043-.224-.126 0-.127.102-.17.327-.17.674 0 2.044.064 2.145.064.101 0 1.389-.064 2.002-.064.226 0 .327.043.327.149 0 .085-.04.127-.223.147-.224.021-.245.021-.452.042-.551.064-.712.486-.755 1.224-.041.675-.041 1.266-.041 4.557v1.348zm18.511 2.258c-.102 0-.162.063-.204.17l-1.227 3.734c-.185.527-.284 1.033-.284 1.413 0 .422.387.612.736.612h.183c.204 0 .265.042.265.127 0 .126-.184.168-.368.168-.489 0-1.306-.064-1.532-.064-.225 0-1.348.064-2.308.064-.266 0-.389-.042-.389-.168 0-.085.103-.127.286-.127.144 0 .327-.022.491-.043.939-.125 1.348-.928 1.716-1.982l4.637-13.104c.245-.695.327-.822.45-.822.122 0 .204.106.449.76.307.802 3.515 9.514 4.76 12.722.736 1.878 1.329 2.216 1.757 2.343.306.104.633.126.798.126.121 0 .224.02.224.127 0 .126-.183.168-.409.168-.307 0-1.798 0-3.207-.042-.39-.022-.615-.022-.615-.147 0-.087.062-.128.145-.15.122-.041.245-.23.122-.57l-1.899-5.19c-.041-.085-.084-.127-.185-.127h-4.392v.002zm4.126-.76c.102 0 .102-.063.083-.148l-1.942-5.696c-.101-.316-.203-.316-.306 0l-1.798 5.696c-.04.106 0 .149.062.149h3.901zm21.973-8.965c.226 0 .327.04.327.168 0 .085-.082.126-.161.126-.145 0-.267.022-.512.063-.551.106-.714.465-.757 1.203-.041.675-.041 1.266-.041 4.558v3.714c0 2.025 0 3.692.103 4.578.06.61.183 1.076.796 1.16.286.043.716.085.838.085.184 0 .246.064.246.127 0 .105-.084.169-.307.169-1.126 0-2.433-.064-2.535-.064-.103 0-1.348.064-1.961.064-.226 0-.327-.041-.327-.169 0-.063.038-.127.223-.127.122 0 .348-.02.531-.062.409-.086.532-.572.613-1.181.103-.886.103-2.554.103-4.559v-.633c0-.125-.042-.147-.145-.147-.879.022-1.492-.021-1.961-.042-.062 0-.124 0-.204.042-.15.086-.282.2-.389.338-.39.422-1.554 2.194-2.084 2.953-.96 1.498-1.471 2.131-2.044 2.657-.695.657-1.594.93-3.269.93l-1.003-.022c-.244 0-.366-.042-.366-.17 0-.04.06-.125.327-.125.245 0 .346 0 .652-.021.92-.085 1.512-.403 2.432-1.561a80.338 80.338 0 002.207-2.913c.652-.865 1.409-1.982 2.084-2.469-2.064-.864-2.944-2.552-2.944-4.198 0-1.646.838-2.849 1.923-3.586.817-.592 2-.886 3.433-.886.918 0 1.654.064 2.164.064.25 0 1.395-.064 2.008-.064zm-2.819 1.075c0-.084-.02-.148-.123-.21-.267-.106-.428-.128-1.041-.128-2.269 0-3.758 1.288-3.758 3.799 0 2.405 1.797 3.797 3.941 3.797.468 0 .696-.021.858-.084.123-.042.123-.19.123-.274v-6.9zM41.687 75v.507c0 .105.062.126.123.126h3.555c.062 0 .142-.021.142-.126.573-3.713 3.189-6.792 7.683-6.792 4.903 0 7.68 4.24 7.68 7.975 0 4.895-2.921 8.566-7.72 8.566-4.904 0-7.805-4.136-7.723-8.546 0-.085-.082-.127-.144-.127H41.81c-.061 0-.123.022-.123.127v2.13c0 2.026 0 3.693.103 4.58.062.61.183 1.075.796 1.16.286.042.716.084.838.084.184 0 .245.064.245.126 0 .106-.081.17-.307.17-1.123 0-2.43-.064-2.532-.064-.102 0-1.328.063-1.94.063-.226 0-.328-.042-.328-.17 0-.061.04-.125.225-.125.121 0 .347-.021.53-.063.41-.085.532-.57.614-1.18.102-.886.102-2.555.102-4.579v-3.713c0-3.293 0-3.882-.04-4.559-.042-.716-.246-1.075-.696-1.18a2.585 2.585 0 00-.633-.084c-.081 0-.163-.043-.163-.128 0-.125.101-.168.327-.168.674 0 1.9.064 2.002.064.102 0 1.388-.064 2.001-.064.224 0 .327.043.327.168 0 .085-.08.127-.163.127-.143 0-.265.022-.511.064-.552.105-.714.464-.756 1.201-.035 1.476-.049 2.953-.04 4.43zm17.223 2.26c0-4.663-2.533-7.744-5.966-7.744-3.635 0-5.659 2.828-5.659 6.838 0 5.063 2.656 8.08 6.17 8.08 2.268-.002 5.455-1.353 5.455-7.174zm7.348-2.133c0-3.29 0-3.881-.04-4.557-.042-.72-.205-1.055-.88-1.202a3.71 3.71 0 00-.695-.064c-.082 0-.162-.043-.162-.127 0-.126.1-.168.327-.168.92 0 2.145.063 2.308.063.45 0 1.634-.063 2.574-.063 2.554 0 3.472.886 3.8 1.202.45.443 1.022 1.392 1.022 2.764 0 2.743-2.126 4.768-5.026 4.768-.103 0-.327 0-.43-.023-.101 0-.224-.04-.224-.147 0-.17.123-.19.551-.19 1.981 0 3.536-1.392 3.536-3.608 0-.529-.062-1.94-1.146-3.08-1.082-1.14-2.328-1.055-2.798-1.055-.347 0-.694.043-.88.126-.121.042-.162.19-.162.401v8.674c0 2.026 0 3.692.102 4.576.06.612.184 1.078.797 1.162.286.041.736.085.92.085.122 0 .163.064.163.126 0 .106-.102.17-.327.17-1.124 0-2.412-.064-2.513-.064-.062 0-1.348.063-1.96.063-.227 0-.328-.042-.328-.17 0-.061.04-.125.163-.125.183 0 .43-.042.613-.085.41-.085.512-.548.593-1.162.102-.885.102-2.551.102-4.576v-3.714zm14.616 7.344c2.535-3.186 7.805-9.938 9.807-12.469.757-.95 1.082-1.287 1.328-1.287.204 0 .307.166.307 2.002 0 3.945 0 7.701.06 11.647.02 1.54.185 2.11.839 2.215a8.5 8.5 0 00.796.085c.245.023.306.085.306.148 0 .128-.081.149-.306.149-.735 0-2.534-.064-2.861-.064-.449 0-1.103.064-1.839.064-.245 0-.307-.042-.307-.127 0-.105.043-.147.307-.168.185-.022.41-.041.594-.085.592-.126.673-1.012.694-2.595.061-3.46.04-6.984.082-10.592-1.064 1.372-9.603 12.3-10.46 13.272-.429.484-.655.592-.756.592-.205 0-.265-.168-.265-1.013 0-3.482.06-8.23 0-12.28-.02-2.32-.247-2.469-.9-2.594-.266-.043-.49-.043-.653-.064-.165-.021-.225-.063-.225-.148 0-.149.184-.149.408-.149.633 0 1.921.064 2.248.064.653 0 1.471-.064 2.043-.064.245 0 .346.043.346.126 0 .086-.04.15-.264.17-.246.02-.347.02-.532.063-.572.126-.714.358-.756 2.152l-.04 10.95zm20.889 2.426c-1.553 0-2.125.022-2.656.064-1.063.064-1.389.42-1.45 1.37-.02.191-.062.358-.185.358-.08 0-.142-.083-.142-.379-.02-1.33-.103-2.026-.123-2.343-.021-.166.02-.189.123-.189.368.062 1.082.106 1.818.106.163 0 .204-.044.327-.274l4.903-14.012c.265-.738.388-.886.51-.886.123 0 .205.148.409.675.389.992 3.637 9.833 5.353 14.262.082.17.143.234.327.234.409 0 1.736-.044 2.145-.128.122-.02.163 0 .122.168a14.862 14.862 0 00-.245 2.446c0 .214-.062.317-.142.317-.123 0-.165-.126-.185-.317-.06-.927-.449-1.369-1.327-1.432-.594-.043-1.839-.043-2.677-.043h-6.905v.003zm4.495-.907c1.777 0 2.205-.042 2.39-.064.082-.022.122-.061.06-.189-1.164-3.123-2.634-7.66-4.147-11.754-.041-.104-.081-.104-.122-.02l-3.513 10.696c-.185.528-.369.99-.369 1.162 0 .083.062.083.124.104.347.04.96.063 2.164.063h3.413v.002zm12.557-1.519c2.534-3.186 7.805-9.938 9.806-12.469.758-.95 1.083-1.287 1.329-1.287.204 0 .306.166.306 2.002 0 3.945 0 7.701.06 11.647.021 1.54.185 2.11.839 2.215.1.022.47.064.797.085.244.023.306.085.306.148 0 .128-.082.149-.306.149-.735 0-2.536-.064-2.862-.064-.448 0-1.102.064-1.838.064-.245 0-.307-.042-.307-.127 0-.105.043-.147.307-.168.184-.022.409-.041.594-.085.59-.126.673-1.012.693-2.595.062-3.46.041-6.984.082-10.592-1.063 1.372-9.602 12.3-10.46 13.272-.428.484-.654.592-.755.592-.207 0-.267-.168-.267-1.013 0-3.482.06-8.23 0-12.28-.021-2.32-.246-2.469-.898-2.594-.268-.043-.491-.043-.654-.064-.164-.021-.224-.063-.224-.148 0-.149.183-.149.407-.149.634 0 1.922.064 2.249.064.652 0 1.471-.064 2.043-.064.244 0 .346.043.346.126 0 .086-.04.15-.264.17-.247.02-.348.02-.533.063-.572.126-.714.358-.755 2.152l-.041 10.95zm26.612-3.629c0 2.025 0 3.693.101 4.579.062.61.185 1.075.798 1.16.286.042.735.085.919.085.122 0 .163.063.163.125 0 .106-.101.17-.328.17-1.124 0-2.411-.064-2.512-.064-.102 0-1.389.064-2.002.064-.225 0-.327-.042-.327-.17 0-.062.039-.125.163-.125.183 0 .428-.041.613-.085.409-.085.51-.549.592-1.16.101-.886.101-2.555.101-4.642V76.92c-.94.442-2.145.61-3.248.61-1.757 0-3.003-.484-3.801-1.455-.408-.507-.858-1.224-.858-3.293 0-.907.021-1.623-.02-2.299-.042-.8-.184-1.054-.737-1.14-.204-.021-.306-.021-.529-.041-.245-.042-.245-.127-.245-.17 0-.103.142-.125.367-.125.756 0 1.676.063 1.96.063.307 0 1.574-.063 2.024-.063.245 0 .326.042.326.148 0 .041-.06.127-.345.148-.696.064-1.022.211-1.063 1.288-.022.737-.022 1.708-.022 2.491 0 2.469 1.39 3.608 3.556 3.608.858 0 1.838-.064 2.635-.423v-1.496c0-3.017 0-3.524-.039-4.198-.041-.718-.205-1.056-.88-1.203a3.522 3.522 0 00-.634-.063c-.145 0-.224-.043-.224-.128 0-.125.101-.168.326-.168.92 0 2.208.064 2.309.064.101 0 1.389-.064 2.002-.064.224 0 .327.043.327.168 0 .085-.082.128-.161.128-.145 0-.269.02-.514.063-.551.105-.712.464-.755 1.203-.041.674-.041 1.266-.041 4.557v3.71h.003zm7.876-3.715c0-3.29 0-3.881-.039-4.557-.041-.72-.206-1.055-.88-1.202-.144-.043-.408-.043-.591-.064-.144-.023-.267-.043-.267-.127 0-.126.101-.168.329-.168.467 0 1.019 0 2.306.063.146 0 4.209 0 4.678-.02.451-.024.819-.064.94-.128.124-.064.163-.085.225-.085.061 0 .082.085.082.19 0 .148-.122.402-.161.99-.022.317-.041.72-.084 1.266-.021.212-.082.359-.163.359-.121 0-.163-.105-.163-.276 0-.274-.041-.527-.102-.695-.143-.484-.572-.697-1.471-.781-.346-.043-2.574-.064-2.8-.064-.08 0-.121.064-.121.212v5.825c0 .147.022.21.121.21.269 0 2.781 0 3.252-.042.551-.04.816-.105 1.019-.357.102-.126.164-.212.246-.212.06 0 .101.042.101.168 0 .127-.101.486-.163 1.183-.061.652-.061 1.138-.082 1.432-.02.212-.061.317-.143.317-.122 0-.144-.168-.144-.338 0-.191-.021-.401-.082-.59-.082-.317-.327-.613-1.062-.697-.551-.064-2.576-.106-2.921-.106-.103 0-.145.063-.145.148v1.858c0 .718-.021 3.166 0 3.608.041.865.163 1.33.674 1.54.348.15.899.191 1.696.191.613 0 1.287-.023 1.839-.19.654-.211.879-.655 1.041-1.56.041-.233.083-.317.184-.317.122 0 .122.168.122.316 0 .168-.161 1.604-.265 2.046-.142.55-.307.55-1.103.55-1.512 0-2.187-.042-2.983-.064-.817-.022-1.757-.063-2.554-.063-.49 0-.98.085-1.51.063-.225 0-.328-.042-.328-.17 0-.061.101-.104.225-.125.203-.021.327-.021.469-.063.429-.105.695-.402.736-1.983.02-.824.04-1.9.04-3.777v-3.714h.002zm13.42 7.85c-1.981-1.836-2.472-4.24-2.472-6.246 0-1.413.47-3.881 2.289-5.76 1.224-1.266 3.085-2.256 6.231-2.256.818 0 1.961.062 2.963.253.776.147 1.41.21 2.167.315.143.021.183.106.183.233 0 .167-.062.42-.101 1.18-.041.697-.041 1.858-.062 2.175-.02.316-.06.442-.183.442-.144 0-.164-.148-.164-.442 0-.824-.326-1.689-.858-2.152-.714-.633-2.29-1.203-4.086-1.203-2.717 0-3.983.823-4.699 1.539-1.491 1.478-1.838 3.356-1.838 5.508 0 4.03 3.003 7.724 7.376 7.724 1.531 0 2.736-.19 3.553-1.056.43-.465.695-1.391.757-1.772.041-.231.083-.316.205-.316.101 0 .144.147.144.317 0 .146-.246 1.982-.45 2.7-.122.4-.163.444-.531.61-.817.34-2.37.485-3.677.485-3.068 0-5.131-.78-6.747-2.278zm18.828-6.499c.635-.633 3.413-3.65 4.659-4.98 1.226-1.306 1.308-1.518 1.308-1.772a.433.433 0 00-.265-.4c-.144-.065-.184-.105-.184-.19 0-.086.122-.127.305-.127.593 0 .531.063 1.226.063.634 0 1.839-.063 2.166-.063.286 0 .348.063.348.148 0 .085-.041.127-.224.147a3.61 3.61 0 00-1.043.255c-.51.211-.899.464-2.125 1.687-1.798 1.793-4.125 4.176-4.657 4.79 1.287 1.455 5.005 5.358 5.965 6.287 1.675 1.623 2.39 2.088 3.37 2.279.185.04.389.062.594.062.161 0 .285.04.285.148 0 .108-.083.149-.307.149h-1.51c-1.779 0-2.249-.232-3.209-1.013-1.226-.99-4.903-5.065-6.7-7.28v2.174c0 2.027 0 3.693.102 4.577.06.612.184 1.077.797 1.162.286.04.695.085.816.085.184 0 .245.084.245.148 0 .106-.08.148-.306.148-1.123 0-2.411-.063-2.512-.063-.101 0-1.308.063-1.921.063-.225 0-.327-.022-.327-.148 0-.064.039-.148.224-.148.122 0 .346-.022.531-.063.409-.086.531-.57.613-1.182.102-.885.102-2.552.102-4.577v-3.714c0-3.292 0-3.881-.042-4.558-.04-.718-.245-1.076-.694-1.18a3.404 3.404 0 00-.736-.087c-.163 0-.224-.04-.224-.125 0-.127.102-.168.327-.168.674 0 2.044.063 2.145.063.101 0 1.389-.063 2.002-.063.226 0 .327.04.327.148 0 .085-.04.127-.223.147-.224.023-.245.023-.452.043-.551.063-.712.486-.755 1.223-.041.676-.041 1.266-.041 4.559v1.346zm18.512 2.257c-.103 0-.163.063-.206.17l-1.226 3.734c-.185.527-.284 1.033-.284 1.413 0 .423.387.612.736.612h.183c.204 0 .265.042.265.127 0 .126-.184.168-.367.168-.49 0-1.307-.063-1.533-.063-.225 0-1.348.063-2.308.063-.266 0-.389-.042-.389-.168 0-.085.103-.127.286-.127.144 0 .327-.021.491-.042.939-.126 1.348-.927 1.716-1.983l4.637-13.103c.245-.695.327-.822.45-.822.122 0 .204.106.449.76.307.8 3.515 9.514 4.76 12.722.736 1.877 1.329 2.215 1.757 2.342.307.105.634.126.798.126.122 0 .224.021.224.127 0 .126-.183.168-.409.168-.306 0-1.798 0-3.207-.042-.39-.021-.615-.021-.615-.147 0-.086.062-.127.146-.15.121-.04.244-.23.121-.57l-1.899-5.19c-.041-.084-.083-.127-.185-.127h-4.391v.002zm4.126-.759c.103 0 .103-.064.084-.148l-1.942-5.698c-.101-.316-.204-.316-.306 0l-1.8 5.697c-.038.105 0 .149.063.149h3.901zm21.972-8.967c.226 0 .327.04.327.168 0 .084-.082.126-.161.126-.145 0-.267.022-.512.063-.551.106-.714.465-.757 1.203-.041.675-.041 1.266-.041 4.558v3.714c0 2.025 0 3.692.103 4.578.06.609.183 1.075.796 1.16.286.043.716.083.838.083.184 0 .246.066.246.13 0 .104-.084.167-.307.167-1.126 0-2.432-.063-2.535-.063-.103 0-1.348.063-1.961.063-.226 0-.327-.04-.327-.168 0-.063.038-.129.223-.129.122 0 .348-.02.531-.06.409-.086.532-.573.613-1.181.103-.886.103-2.555.103-4.559v-.633c0-.126-.041-.148-.145-.148-.879.022-1.492-.022-1.961-.041-.062 0-.123 0-.204.04-.15.086-.282.201-.389.34-.39.42-1.554 2.193-2.084 2.951-.96 1.498-1.47 2.131-2.044 2.658-.695.658-1.594.93-3.269.93l-1.002-.02c-.245 0-.367-.043-.367-.17 0-.041.06-.126.327-.126.245 0 .346 0 .652-.021.92-.085 1.512-.403 2.432-1.562a80.07 80.07 0 002.207-2.912c.652-.865 1.409-1.983 2.084-2.469-2.064-.864-2.944-2.553-2.944-4.198 0-1.645.838-2.849 1.923-3.586.817-.593 2-.886 3.433-.886.918 0 1.654.063 2.165.063.25 0 1.394-.063 2.007-.063zm-2.818 1.075c0-.085-.022-.148-.123-.21-.268-.107-.429-.128-1.042-.128-2.268 0-3.758 1.29-3.758 3.799 0 2.405 1.798 3.796 3.941 3.796.468 0 .696-.02.859-.083.123-.042.123-.19.123-.274v-6.9zM40.176 108.722c-1.982-1.835-2.473-4.24-2.473-6.246 0-1.412.47-3.881 2.29-5.76 1.224-1.265 3.085-2.256 6.23-2.256.817 0 1.961.062 2.962.253.776.147 1.41.21 2.166.315.143.021.184.106.184.233 0 .167-.062.42-.103 1.18-.041.697-.041 1.858-.061 2.175-.02.317-.06.442-.184.442-.142 0-.164-.148-.164-.442 0-.824-.326-1.689-.858-2.152-.714-.633-2.288-1.203-4.086-1.203-2.717 0-3.982.823-4.698 1.54-1.492 1.477-1.84 3.355-1.84 5.507 0 4.03 3.004 7.724 7.377 7.724 1.531 0 2.737-.191 3.554-1.055.43-.465.695-1.392.756-1.772.041-.232.082-.317.204-.317.103 0 .144.147.144.317 0 .147-.247 1.982-.45 2.7-.122.4-.163.444-.531.61-.817.34-2.37.485-3.677.485-3.065 0-5.127-.78-6.742-2.278zm17.7-.337c-.183.526-.286 1.034-.286 1.414 0 .421.387.61.734.61h.185c.204 0 .266.041.266.128 0 .127-.185.168-.368.168-.49 0-1.307-.064-1.533-.064-.224 0-1.348.064-2.308.064-.266 0-.387-.041-.387-.168 0-.087.1-.128.284-.128.144 0 .327-.021.491-.04.94-.128 1.348-.929 1.716-1.984l4.637-13.102c.245-.697.327-.823.45-.823.122 0 .204.105.45.759.306.801 3.514 9.516 4.76 12.723.736 1.875 1.328 2.214 1.756 2.342.307.104.634.125.798.125.122 0 .224.023.224.128 0 .127-.183.168-.409.168-.306 0-1.798 0-3.207-.041-.389-.023-.613-.023-.613-.15 0-.084.062-.126.144-.147.122-.042.245-.233.122-.569l-4.23-11.817c-.1-.316-.204-.316-.306 0l-3.37 10.404zm15.214 2.194c0-.085.102-.147.307-.147.101 0 .224 0 .51-.023.96-.084 1.615-.507 2.452-1.856.531-.908.776-1.373 1.002-1.878.101-.211.08-.317-.022-.549-.653-1.351-4.065-7.828-4.964-9.368-.755-1.351-.939-1.624-2.125-1.709-.163-.02-.245-.084-.245-.17 0-.061.062-.125.306-.125.613 0 1.533.064 2.125.064.225 0 1.226-.064 1.88-.064.204 0 .286.042.286.106 0 .084-.04.147-.306.19-.348.04-.552.189-.552.357 0 .168.163.484.348.845.428.822 3.9 7.553 4.33 8.334a415.377 415.377 0 003.718-7.85c.226-.505.409-1.034.409-1.307 0-.169-.103-.295-.347-.339-.204-.04-.307-.125-.307-.212 0-.083.103-.103.327-.103.368 0 .776.041 1.247.041.551 0 1.491-.063 1.878-.063.226 0 .307.042.307.125 0 .106-.122.15-.326.17a4.173 4.173 0 00-.736.147c-.572.212-.817.55-1.246 1.435-1.552 3.164-4.514 9.262-5.578 11.541-.285.633-.816 1.71-.92 2.279-.02.147-.06.19-.141.211-.206.042-2.39.063-3.29.063-.205.002-.327-.018-.327-.145zm25.975-8.333c.715-.656 3.452-3.547 4.678-4.875 1.267-1.37 1.409-1.71 1.409-1.94 0-.168-.081-.295-.47-.38-.203-.042-.285-.086-.285-.168 0-.087.102-.127.285-.127.511 0 1.002.063 1.716.063.634 0 1.697-.064 2.045-.064.265 0 .346.041.346.149 0 .086-.102.126-.368.168-.307.042-.653.106-.939.233-.572.21-1.002.464-2.228 1.73-1.573 1.624-4.249 4.346-4.76 4.916.757.886 4.475 5.169 5.721 6.371 1.37 1.309 2.105 1.815 2.86 1.983.265.064.592.086.777.086.183 0 .286.041.286.149 0 .127-.123.168-.348.168h-1.532c-1.86 0-2.37-.358-3.555-1.581-1.553-1.625-3.473-4.009-5.128-6.016-.183-.23-.367-.401-.51-.591v2.068c0 2.026 0 3.692.102 4.577.06.611.183 1.097.797 1.182.347.041.633.062.816.062.184 0 .267.064.267.128 0 .104-.083.168-.306.168-1.125 0-2.392-.064-2.493-.064-.103 0-1.389.064-2.002.064-.226 0-.287-.041-.287-.168 0-.064.102-.128.225-.128.184 0 .347-.021.531-.062.41-.086.552-.422.613-1.182.06-.886.103-2.552.103-4.577v-2.068c-.144.211-.307.402-.43.549-1.389 1.687-3.575 4.345-5.209 5.992-1.186 1.201-1.676 1.645-3.494 1.645h-1.593c-.185 0-.306-.041-.306-.148 0-.105.08-.168.306-.168.224 0 .266-.023.654-.064.776-.104 1.695-.654 3.269-2.237 1.266-1.287 3.921-4.221 5.474-6.014-.49-.592-4.229-4.409-4.821-5.041-1.226-1.224-1.675-1.54-2.268-1.753-.285-.1-.58-.17-.878-.21-.286-.043-.389-.084-.389-.168 0-.107.082-.149.369-.149.347 0 1.409.064 2.022.064.714 0 1.226-.064 1.757-.064.183 0 .244.041.244.127 0 .084-.061.126-.265.168-.41.085-.49.212-.49.38 0 .23.184.634 1.45 1.985 1.309 1.391 3.678 3.86 4.598 4.831v-1.372c0-3.291 0-3.882-.043-4.558-.04-.719-.245-1.075-.693-1.18a2.595 2.595 0 00-.634-.086c-.082 0-.163-.042-.163-.125 0-.129.102-.17.326-.17.674 0 1.921.064 2.024.064.101 0 1.347-.064 1.96-.064.226 0 .327.041.327.17 0 .083-.082.125-.162.125a2.942 2.942 0 00-.512.064c-.552.105-.714.465-.755 1.202-.041.674-.041 1.267-.041 4.558v1.373zm17.2-.824c0 .085.02.105.082.105h.551c2.351 0 3.411.295 4.29.781 1.39.782 2.248 2.048 2.248 3.862 0 2.025-1.574 4.6-5.067 4.6-.817 0-2.329-.127-2.921-.127-.101 0-1.348.063-1.961.063-.224 0-.327-.042-.327-.168 0-.064.082-.106.247-.127a3.4 3.4 0 00.53-.085c.408-.085.511-.548.593-1.161.103-.886.103-2.552.103-4.577v-3.735c0-3.27 0-3.862-.041-4.6-.042-.8-.369-1.075-.982-1.161-.184-.022-.203-.022-.51-.041-.185-.023-.226-.086-.226-.168 0-.106.124-.127.286-.127.777 0 1.676.063 2.187.063.346 0 5.168 0 5.618-.021.45-.023.878-.064 1.001-.127.122-.064.165-.085.225-.085.061 0 .101.043.082.148-.041.19-.103.38-.164.971-.046.442-.073.885-.081 1.329 0 .254-.082.358-.164.358-.123 0-.162-.104-.162-.275 0-.274-.041-.527-.102-.696-.142-.484-.572-.737-1.471-.78a126.586 126.586 0 00-3.697-.043c-.122 0-.163.063-.163.213v5.611h-.004zm0 2.236c0 2.131 0 4.177.041 5.169.02.571.183.823.387.907.532.254 1.186.316 1.983.316 1.676 0 2.921-1.052 2.921-3.418 0-1.477-.348-2.637-1.451-3.544-.835-.696-2.123-.928-3.799-.886-.04 0-.082.043-.082.105v1.351zm14.311.822c-.101 0-.161.064-.204.17l-1.226 3.735c-.184.526-.286 1.032-.286 1.413 0 .422.389.611.735.611h.185c.205 0 .267.043.267.128 0 .125-.185.168-.368.168-.49 0-1.308-.064-1.533-.064-.224 0-1.348.064-2.308.064-.267 0-.39-.043-.39-.168 0-.085.102-.128.286-.128.143 0 .327-.021.491-.042.94-.126 1.348-.927 1.716-1.982l4.637-13.104c.245-.695.327-.822.452-.822.12 0 .203.106.448.76.307.801 3.514 9.514 4.76 12.722.736 1.878 1.328 2.215 1.757 2.343.307.104.634.125.798.125.122 0 .223.021.223.128 0 .125-.183.168-.408.168-.306 0-1.799 0-3.208-.043-.389-.021-.613-.021-.613-.147 0-.086.061-.127.143-.15.122-.04.245-.23.122-.569l-1.899-5.19c-.04-.085-.082-.127-.185-.127h-4.392v.001zm4.127-.759c.102 0 .102-.063.082-.148l-1.942-5.698c-.1-.316-.204-.316-.306 0l-1.798 5.698c-.04.104 0 .148.061.148h3.903z" fill="#1F3669"/></svg>