<svg width="106" height="129" fill="none" xmlns="http://www.w3.org/2000/svg"><path d="M66.556-1.37C30.34-1.37.876 27.9.876 63.877c0 35.977 29.464 65.247 65.68 65.247 36.216 0 65.681-29.27 65.681-65.247 0-35.977-29.465-65.247-65.68-65.247zM14.012 63.877c0-5.866 1.025-11.497 2.831-16.762l10.305 10.237 13.136 13.05V83.45l13.136 13.05 6.568 6.524v12.599c-25.871-3.229-45.976-25.178-45.976-51.747zm94.12 31.795c-4.289-3.432-10.791-5.696-15.304-5.696V83.45c0-3.46-1.383-6.78-3.847-9.227a13.18 13.18 0 00-9.289-3.822H53.42V50.827a13.18 13.18 0 009.289-3.822 13.006 13.006 0 003.847-9.227v-6.525h6.568a13.18 13.18 0 009.289-3.822 13.006 13.006 0 003.847-9.227v-2.682c19.232 7.758 32.841 26.497 32.841 48.355a51.64 51.64 0 01-10.969 31.795z" fill="#fff"/></svg>