<svg width="108" height="129" fill="none" xmlns="http://www.w3.org/2000/svg"><path d="M58.854 134.197S116.97 76.019 116.97 31.88c0-16.281-6.123-31.896-17.022-43.409-10.898-11.513-25.68-17.98-41.094-17.98-15.413 0-30.195 6.467-41.094 17.98C6.86-.016.738 15.6.738 31.881c0 44.138 58.116 102.316 58.116 102.316zm0-71.622c-7.707 0-15.098-3.234-20.547-8.99-5.45-5.757-8.511-13.564-8.511-21.705 0-8.14 3.061-15.948 8.51-21.704 5.45-5.757 12.841-8.99 20.548-8.99 7.707 0 15.098 3.233 20.547 8.99 5.45 5.756 8.511 13.563 8.511 21.704s-3.061 15.948-8.51 21.705c-5.45 5.756-12.841 8.99-20.548 8.99z" fill="#fff"/></svg>