<svg width="30" height="30" fill="none" xmlns="http://www.w3.org/2000/svg"><path d="M15 0c8.285 0 15 6.715 15 15 0 8.284-6.715 15-15 15-8.284 0-15-6.716-15-15C0 6.715 6.716 0 15 0zm0 28.125c7.238 0 13.125-5.887 13.125-13.125 0-7.237-5.887-13.154-13.125-13.154C7.763 1.846 1.875 7.763 1.875 15c0 7.238 5.888 13.125 13.125 13.125z" fill="#296093"/><path d="M17.055 7.754a.931.931 0 011.326 0c.366.37.366.97 0 1.34l-5.808 5.892 5.809 5.892c.366.37.366.97 0 1.34a.931.931 0 01-1.326 0l-6.469-6.562a.972.972 0 010-1.34l6.468-6.562z" fill="#296093"/></svg>