<svg width="107" height="129" viewBox="0 0 107 129" fill="none" xmlns="http://www.w3.org/2000/svg">
<g clip-path="url(#clip0_3:1116)">
<path d="M29.8726 35.3034C26.2096 35.3034 22.6288 34.2255 19.5831 32.2061C16.5374 30.1867 14.1636 27.3164 12.7619 23.9583C11.3601 20.6001 10.9933 16.9049 11.7079 13.3399C12.4225 9.77494 14.1865 6.50028 16.7766 3.93006C19.3667 1.35984 22.6668 -0.390499 26.2594 -1.09962C29.852 -1.80874 33.5759 -1.4448 36.9601 -0.0538037C40.3443 1.33719 43.2368 3.69275 45.2718 6.71501C47.3069 9.73727 48.3931 13.2905 48.3931 16.9253C48.3931 21.7995 46.4418 26.474 42.9686 29.9206C39.4953 33.3671 34.7845 35.3034 29.8726 35.3034ZM29.8726 7.73628C28.0411 7.73628 26.2507 8.27521 24.7279 9.28491C23.205 10.2946 22.0181 11.7297 21.3172 13.4088C20.6163 15.0879 20.4329 16.9355 20.7903 18.718C21.1476 20.5005 22.0295 22.1378 23.3246 23.4229C24.6197 24.7081 26.2697 25.5832 28.066 25.9378C29.8623 26.2923 31.7242 26.1104 33.4163 25.4149C35.1084 24.7194 36.5547 23.5416 37.5722 22.0305C38.5897 20.5193 39.1329 18.7427 39.1329 16.9253C39.1329 14.4882 38.1572 12.151 36.4206 10.4277C34.6839 8.70441 32.3286 7.73628 29.8726 7.73628Z" fill="white"/>
<path d="M103.954 35.3041C100.291 35.3041 96.7101 34.2263 93.6644 32.2068C90.6187 30.1874 88.2449 27.3172 86.8431 23.959C85.4414 20.6009 85.0746 16.9057 85.7892 13.3407C86.5038 9.77567 88.2678 6.50101 90.8579 3.93079C93.448 1.36057 96.7481 -0.389767 100.341 -1.09889C103.933 -1.80801 107.657 -1.44406 111.041 -0.0530714C114.426 1.33792 117.318 3.69348 119.353 6.71574C121.388 9.738 122.474 13.2912 122.474 16.926C122.474 21.8002 120.523 26.4747 117.05 29.9213C113.577 33.3679 108.866 35.3041 103.954 35.3041ZM103.954 7.73701C102.122 7.73701 100.332 8.27594 98.8092 9.28564C97.2863 10.2953 96.0994 11.7305 95.3985 13.4096C94.6976 15.0886 94.5142 16.9362 94.8716 18.7187C95.2289 20.5012 96.1108 22.1386 97.4059 23.4237C98.701 24.7088 100.351 25.584 102.147 25.9385C103.944 26.2931 105.806 26.1111 107.498 25.4156C109.19 24.7201 110.636 23.5423 111.654 22.0312C112.671 20.5201 113.214 18.7435 113.214 16.926C113.214 14.489 112.239 12.1517 110.502 10.4284C108.765 8.70514 106.41 7.73701 103.954 7.73701Z" fill="white"/>
<path d="M113.214 131.789H94.6935C92.2375 131.789 89.8821 130.821 88.1455 129.097C86.4088 127.374 85.4332 125.037 85.4332 122.6V90.4382H94.6935V122.6H113.214V81.2492H122.474V53.6821C122.474 52.4636 121.986 51.2949 121.118 50.4333C120.25 49.5717 119.072 49.0876 117.844 49.0876H88.1187L66.9127 85.8437L45.7067 49.0876H15.9812C14.7532 49.0876 13.5755 49.5717 12.7072 50.4333C11.8389 51.2949 11.3511 52.4636 11.3511 53.6821V81.2492H20.6113V122.6H39.1319V90.4382H48.3921V122.6C48.3921 125.037 47.4165 127.374 45.6799 129.097C43.9432 130.821 41.5878 131.789 39.1319 131.789H20.6113C18.1554 131.789 15.8 130.821 14.0634 129.097C12.3267 127.374 11.3511 125.037 11.3511 122.6V90.4382C8.89511 90.4382 6.53972 89.4701 4.80309 87.7468C3.06645 86.0235 2.09082 83.6863 2.09082 81.2492V53.6821C2.09082 50.0265 3.55427 46.5206 6.15922 43.9357C8.76418 41.3507 12.2973 39.8986 15.9812 39.8986H51.0776L66.9127 67.4656L82.7477 39.8986H117.844C121.528 39.8986 125.061 41.3507 127.666 43.9357C130.271 46.5206 131.735 50.0265 131.735 53.6821V81.2492C131.735 83.6863 130.759 86.0235 129.022 87.7468C127.286 89.4701 124.93 90.4382 122.474 90.4382V122.6C122.474 125.037 121.499 127.374 119.762 129.097C118.025 130.821 115.67 131.789 113.214 131.789Z" fill="white"/>
<ellipse cx="28.677" cy="17.6671" rx="11.9487" ry="11.8568" fill="white"/>
<ellipse cx="102.759" cy="17.6671" rx="11.9487" ry="11.8568" fill="white"/>
<path d="M8.25684 46.1234H48.3925V124.378H14.9361V90.2551L9.98438 82.135L8.25684 46.1234Z" fill="white"/>
<path d="M85.4333 46.1234L123.002 46.8574V81.4132L118.89 124.378H85.4333V46.1234Z" fill="white"/>
</g>
<defs>
<clipPath id="clip0_3:1116">
<rect width="107" height="129" fill="white"/>
</clipPath>
</defs>
</svg>
