<svg width="30" height="30" viewBox="0 0 30 30" fill="none" xmlns="http://www.w3.org/2000/svg">
<path d="M15 0C23.2847 0 30 6.7153 30 15C30 23.2838 23.2847 30 15 30C6.71624 30 0 23.2838 0 15C0 6.7153 6.71624 0 15 0ZM15 28.125C22.2375 28.125 28.125 22.2375 28.125 15C28.125 7.7625 22.2375 1.84596 15 1.84596C7.7625 1.84596 1.87503 7.7625 1.87503 15C1.87503 22.2375 7.7625 28.125 15 28.125Z" fill="#296093"/>
<path d="M17.0552 7.75409C17.4218 7.38471 18.0152 7.38471 18.3808 7.75409C18.7474 8.1244 18.7474 8.72343 18.3808 9.09375L12.573 14.9859L18.3818 20.878C18.7484 21.2474 18.7484 21.8474 18.3818 22.2177C18.0152 22.5871 17.4218 22.5871 17.0561 22.2177L10.5874 15.6562C10.2311 15.2952 10.2302 14.6774 10.5874 14.3165L17.0552 7.75409Z" fill="#296093"/>
</svg>
