<svg width="108" height="129" viewBox="0 0 108 129" fill="none" xmlns="http://www.w3.org/2000/svg">
<path d="M140.369 28.2637H96.0549C94.0961 28.2637 92.2175 29.0323 90.8325 30.4004C89.4474 31.7685 88.6693 33.624 88.6693 35.5588V57.4443H73.8981V6.37827C73.8981 4.44348 73.1199 2.58793 71.7349 1.21983C70.3498 -0.148277 68.4712 -0.91687 66.5125 -0.91687H7.4276C5.46881 -0.91687 3.59026 -0.148277 2.20519 1.21983C0.820116 2.58793 0.0419922 4.44348 0.0419922 6.37827V123.101C0.0419922 125.035 0.0419922 130.396 0.0419922 130.396C0.0419922 130.396 5.46881 130.396 7.4276 130.396H140.369C142.327 130.396 144.206 129.627 145.591 128.259C146.976 126.891 147.754 125.035 147.754 123.101V35.5588C147.754 33.624 146.976 31.7685 145.591 30.4004C144.206 29.0323 142.327 28.2637 140.369 28.2637ZM44.3556 20.9686H59.1268V35.5588H44.3556V20.9686ZM29.5844 93.92H14.8132V79.3297H29.5844V93.92ZM29.5844 64.7394H14.8132V50.1491H29.5844V64.7394ZM29.5844 35.5588H14.8132V20.9686H29.5844V35.5588ZM59.1268 93.92H44.3556V79.3297H59.1268V93.92ZM59.1268 64.7394H44.3556V50.1491H59.1268V64.7394ZM125.597 93.92H110.826V79.3297H125.597V93.92ZM125.597 64.7394H110.826V50.1491H125.597V64.7394Z" fill="white"/>
</svg>
