<svg width="106" height="129" viewBox="0 0 106 129" fill="none" xmlns="http://www.w3.org/2000/svg">
<path d="M66.5564 -1.37024C30.3403 -1.37024 0.876221 27.8996 0.876221 63.8768C0.876221 99.8541 30.3403 129.124 66.5564 129.124C102.772 129.124 132.237 99.8541 132.237 63.8768C132.237 27.8996 102.772 -1.37024 66.5564 -1.37024ZM14.0123 63.8768C14.0123 58.0111 15.0369 52.3803 16.8431 47.1149L27.1483 57.3521L40.2843 70.4016V83.451L53.4203 96.5004L59.9884 103.025V115.624C34.117 112.395 14.0123 90.4455 14.0123 63.8768ZM108.132 95.6717C103.843 92.2398 97.3407 89.9757 92.8284 89.9757V83.451C92.8284 79.9901 91.4445 76.6709 88.981 74.2236C86.5175 71.7764 83.1763 70.4016 79.6924 70.4016H53.4203V50.8274C56.9042 50.8274 60.2454 49.4526 62.7089 47.0053C65.1724 44.5581 66.5564 41.2389 66.5564 37.778V31.2533H73.1244C76.6083 31.2533 79.9495 29.8785 82.413 27.4312C84.8765 24.984 86.2604 21.6648 86.2604 18.2039V15.5222C105.492 23.2801 119.101 42.0191 119.101 63.8768C119.099 75.391 115.24 86.5772 108.132 95.6717Z" fill="white"/>
</svg>
