<svg width="109" height="129" viewBox="0 0 109 129" fill="none" xmlns="http://www.w3.org/2000/svg">
<path d="M76.16 -1.7229C34.0697 -1.7229 7.90708e-10 31.711 7.90708e-10 73.0315V87.0479C-2.27819e-05 88.7833 0.492285 90.4844 1.42176 91.9605C2.35123 93.4367 3.68115 94.6297 5.26248 95.4058L9.54142 97.5056C10.1397 115.052 24.8178 129.097 42.84 129.097H49.98C53.9234 129.097 57.12 125.96 57.12 122.089V70.6954C57.12 66.8248 53.9234 63.6872 49.98 63.6872H42.84C33.5158 63.6872 25.0879 67.448 19.04 73.5066V73.0315C19.04 42.1167 44.664 16.9657 76.16 16.9657C107.656 16.9657 133.28 42.1167 133.28 73.0315V73.5066C127.232 67.448 118.804 63.6872 109.48 63.6872H102.34C98.3967 63.6872 95.2 66.8248 95.2 70.6954V122.089C95.2 125.96 98.3967 129.097 102.34 129.097H109.48C127.502 129.097 142.18 115.052 142.779 97.5056L147.057 95.4058C148.639 94.6298 149.969 93.4368 150.898 91.9606C151.828 90.4844 152.32 88.7833 152.32 87.0479V73.0315C152.32 31.7183 118.257 -1.7229 76.16 -1.7229Z" fill="white"/>
</svg>
