<svg width="30" height="30" viewBox="0 0 30 30" fill="none" xmlns="http://www.w3.org/2000/svg">
<path d="M15 0C6.7153 0 0 6.7153 0 15C0 23.2838 6.7153 30 15 30C23.2838 30 30 23.2838 30 15C30 6.7153 23.2838 0 15 0ZM15 28.125C7.7625 28.125 1.87503 22.2375 1.87503 15C1.87503 7.7625 7.7625 1.84596 15 1.84596C22.2375 1.84596 28.125 7.7625 28.125 15C28.125 22.2375 22.2375 28.125 15 28.125Z" fill="#296093"/>
<path d="M12.9448 7.75409C12.5782 7.38471 11.9848 7.38471 11.6192 7.75409C11.2526 8.1244 11.2526 8.72343 11.6192 9.09375L17.427 14.9859L11.6182 20.878C11.2516 21.2474 11.2516 21.8474 11.6182 22.2177C11.9848 22.5871 12.5782 22.5871 12.9439 22.2177L19.4126 15.6562C19.7689 15.2952 19.7698 14.6774 19.4126 14.3165L12.9448 7.75409Z" fill="#296093"/>
</svg>
