<svg width="108" height="129" viewBox="0 0 108 129" fill="none" xmlns="http://www.w3.org/2000/svg">
<path d="M58.8541 134.197C58.8541 134.197 116.97 76.0195 116.97 31.8803C116.97 15.5987 110.847 -0.0160446 99.9485 -11.5289C89.0495 -23.0417 74.2674 -29.5095 58.8541 -29.5095C43.4407 -29.5095 28.6586 -23.0417 17.7597 -11.5289C6.86074 -0.0160446 0.737793 15.5987 0.737793 31.8803C0.737793 76.0195 58.8541 134.197 58.8541 134.197ZM58.8541 62.5752C51.1474 62.5752 43.7563 59.3413 38.3069 53.5849C32.8574 47.8284 29.7959 40.0211 29.7959 31.8803C29.7959 23.7395 32.8574 15.9321 38.3069 10.1757C43.7563 4.4193 51.1474 1.18538 58.8541 1.18538C66.5608 1.18538 73.9518 4.4193 79.4013 10.1757C84.8507 15.9321 87.9122 23.7395 87.9122 31.8803C87.9122 40.0211 84.8507 47.8284 79.4013 53.5849C73.9518 59.3413 66.5608 62.5752 58.8541 62.5752Z" fill="white"/>
</svg>
